<svg width="76" height="32" viewBox="0 0 76 32" fill="none" xmlns="http://www.w3.org/2000/svg">
<rect width="76" height="32" rx="16" fill="white"/>
<path fill-rule="evenodd" clip-rule="evenodd" d="M18.2571 8.37C16.4923 8.75939 14.9235 9.76859 13.8372 11.217C13.2325 12.0232 12.7951 12.9422 12.5507 13.92L12.4051 14.5021C12.1545 15.5045 12.1297 16.5501 12.3323 17.5633C12.6953 19.3782 13.7644 20.9746 15.3044 22.0013L15.9153 22.4086C17.4181 23.4104 19.2311 23.8384 21.0233 23.6144C23.6762 23.2828 25.9539 21.5687 27.0071 19.1113L27.1434 18.7932C21.0871 20.582 15.4764 14.3286 18.2526 8.37964L18.2571 8.37ZM18.4905 6.2822C19.8389 6.01252 20.9212 7.39055 20.3397 8.63665L20.0649 9.22541C17.9416 13.7753 22.5014 18.5678 27.1513 16.6734C28.5191 16.1162 29.875 17.4967 29.2932 18.8542L28.8454 19.8992C27.5124 23.0095 24.6292 25.1792 21.2714 25.599C19.0029 25.8825 16.7081 25.3408 14.8059 24.0727L14.195 23.6654C12.2136 22.3445 10.8381 20.2906 10.3711 17.9555C10.1104 16.6519 10.1424 15.3067 10.4649 14.017L10.6104 13.4349C10.9195 12.1986 11.4726 11.0365 12.2372 10.017C13.6487 8.13498 15.7045 6.83939 18.0113 6.37803L18.4905 6.2822Z" fill="#5E5E5E"/>
<rect x="38" y="2" width="36" height="28" rx="14" fill="black"/>
<path d="M56 6C56.5523 6 57 6.44772 57 7V8C57 8.55228 56.5523 9 56 9C55.4477 9 55 8.55228 55 8V7C55 6.44772 55.4477 6 56 6Z" fill="white"/>
<path d="M48.2929 8.29289C48.6834 7.90237 49.3166 7.90237 49.7071 8.29289L50.7071 9.29289C51.0976 9.68342 51.0976 10.3166 50.7071 10.7071C50.3166 11.0976 49.6834 11.0976 49.2929 10.7071L48.2929 9.70711C47.9024 9.31658 47.9024 8.68342 48.2929 8.29289Z" fill="white"/>
<path d="M63.7071 9.70711L62.7071 10.7071C62.3166 11.0976 61.6834 11.0976 61.2929 10.7071C60.9024 10.3166 60.9024 9.68342 61.2929 9.29289L62.2929 8.29289C62.6834 7.90237 63.3166 7.90237 63.7071 8.29289C64.0976 8.68342 64.0976 9.31658 63.7071 9.70711Z" fill="white"/>
<path d="M62.7071 21.2929C62.3166 20.9024 61.6834 20.9024 61.2929 21.2929C60.9024 21.6834 60.9024 22.3166 61.2929 22.7071L62.2929 23.7071C62.6834 24.0976 63.3166 24.0976 63.7071 23.7071C64.0976 23.3166 64.0976 22.6834 63.7071 22.2929L62.7071 21.2929Z" fill="white"/>
<path d="M50.7071 21.2929C51.0976 21.6834 51.0976 22.3166 50.7071 22.7071L49.7071 23.7071C49.3166 24.0976 48.6834 24.0976 48.2929 23.7071C47.9024 23.3166 47.9024 22.6834 48.2929 22.2929L49.2929 21.2929C49.6834 20.9024 50.3166 20.9024 50.7071 21.2929Z" fill="white"/>
<path d="M57 24C57 23.4477 56.5523 23 56 23C55.4477 23 55 23.4477 55 24V25C55 25.5523 55.4477 26 56 26C56.5523 26 57 25.5523 57 25V24Z" fill="white"/>
<path d="M47 15C46.4477 15 46 15.4477 46 16C46 16.5523 46.4477 17 47 17H48C48.5523 17 49 16.5523 49 16C49 15.4477 48.5523 15 48 15H47Z" fill="white"/>
<path d="M63 16C63 15.4477 63.4477 15 64 15H65C65.5523 15 66 15.4477 66 16C66 16.5523 65.5523 17 65 17H64C63.4477 17 63 16.5523 63 16Z" fill="white"/>
<path fill-rule="evenodd" clip-rule="evenodd" d="M56 11C53.2386 11 51 13.2386 51 16C51 18.7614 53.2386 21 56 21C58.7614 21 61 18.7614 61 16C61 13.2386 58.7614 11 56 11ZM53 16C53 14.3431 54.3431 13 56 13C57.6569 13 59 14.3431 59 16C59 17.6569 57.6569 19 56 19C54.3431 19 53 17.6569 53 16Z" fill="white"/>
</svg>
