<svg width="29" height="30" viewBox="0 0 29 30" fill="none" xmlns="http://www.w3.org/2000/svg">
<path d="M8.91663 29.1667C8.13746 29.1667 7.47045 28.8892 6.91558 28.3344C6.36072 27.7795 6.08329 27.1125 6.08329 26.3333C6.08329 25.5542 6.36072 24.8872 6.91558 24.3323C7.47045 23.7774 8.13746 23.5 8.91663 23.5C9.69579 23.5 10.3628 23.7774 10.9177 24.3323C11.4725 24.8872 11.75 25.5542 11.75 26.3333C11.75 27.1125 11.4725 27.7795 10.9177 28.3344C10.3628 28.8892 9.69579 29.1667 8.91663 29.1667ZM23.0833 29.1667C22.3041 29.1667 21.6371 28.8892 21.0823 28.3344C20.5274 27.7795 20.25 27.1125 20.25 26.3333C20.25 25.5542 20.5274 24.8872 21.0823 24.3323C21.6371 23.7774 22.3041 23.5 23.0833 23.5C23.8625 23.5 24.5295 23.7774 25.0843 24.3323C25.6392 24.8872 25.9166 25.5542 25.9166 26.3333C25.9166 27.1125 25.6392 27.7795 25.0843 28.3344C24.5295 28.8892 23.8625 29.1667 23.0833 29.1667ZM7.71246 6.5L11.1125 13.5833H21.0291L24.925 6.5H7.71246ZM6.36663 3.66667H27.2625C27.8055 3.66667 28.2187 3.90868 28.502 4.39271C28.7854 4.87674 28.7972 5.36667 28.5375 5.8625L23.5083 14.9292C23.2486 15.4014 22.9003 15.7674 22.4635 16.0271C22.0267 16.2868 21.5486 16.4167 21.0291 16.4167H10.475L8.91663 19.25H25.9166V22.0833H8.91663C7.85413 22.0833 7.05135 21.617 6.50829 20.6844C5.96524 19.7517 5.94163 18.825 6.43746 17.9042L8.34996 14.4333L3.24996 3.66667H0.416626V0.833336H5.02079L6.36663 3.66667Z" fill="white"/>
</svg>
