<svg width="24" height="24" viewBox="0 0 24 24" fill="none" xmlns="http://www.w3.org/2000/svg">
<path d="M20.3619 7.75881C20.2635 15.1787 15.5187 20.2609 8.43573 20.5801C5.51482 20.7138 3.39872 19.7703 1.55713 18.6004C3.71595 18.9449 6.39288 18.082 7.82456 16.8564C5.70846 16.6506 4.45559 15.5735 3.86936 13.8401C4.48083 13.9458 5.12502 13.9177 5.70594 13.7947C3.79642 13.1555 2.43283 11.9753 2.36238 9.50232C2.89823 9.74628 3.45684 9.97561 4.19896 10.0208C2.7699 9.20797 1.71319 6.23654 2.92347 4.27166C5.04442 6.59639 7.59567 8.49344 11.7849 8.75007C10.7331 4.25404 16.6911 1.81597 19.1846 4.83775C20.2387 4.63383 21.0967 4.23391 21.922 3.79863C21.5823 4.84273 20.9281 5.57239 20.1307 6.1561C21.0061 6.03792 21.7809 5.82401 22.4429 5.49693C22.0323 6.34988 21.1344 7.11476 20.3619 7.75881Z" fill="#CCCCCC"/>
</svg>
