<svg width="18" height="22" viewBox="0 0 18 22" fill="none" xmlns="http://www.w3.org/2000/svg">
<path fill-rule="evenodd" clip-rule="evenodd" d="M9 3.75C4.02944 3.75 0 7.77944 0 12.75C0 17.7206 4.02944 21.75 9 21.75C13.9706 21.75 18 17.7206 18 12.75C17.9943 7.78179 13.9682 3.75568 9 3.75ZM9 20.25C4.85786 20.25 1.5 16.8921 1.5 12.75C1.5 8.60786 4.85786 5.25 9 5.25C13.1421 5.25 16.5 8.60786 16.5 12.75C16.4953 16.8902 13.1402 20.2453 9 20.25ZM13.2806 8.46937C13.4215 8.61005 13.5006 8.80094 13.5006 9C13.5006 9.19906 13.4215 9.38995 13.2806 9.53063L9.53063 13.2806C9.23757 13.5737 8.76243 13.5737 8.46937 13.2806C8.17632 12.9876 8.17632 12.5124 8.46937 12.2194L12.2194 8.46937C12.3601 8.32854 12.5509 8.24941 12.75 8.24941C12.9491 8.24941 13.1399 8.32854 13.2806 8.46937ZM6 1.5C6 1.08579 6.33579 0.75 6.75 0.75H11.25C11.6642 0.75 12 1.08579 12 1.5C12 1.91421 11.6642 2.25 11.25 2.25H6.75C6.33579 2.25 6 1.91421 6 1.5Z" fill="#121417"/>
</svg>
