<svg width="133" height="24" viewBox="0 0 133 24" fill="none" xmlns="http://www.w3.org/2000/svg">
<g clip-path="url(#clip0_2_314)">
<path fill-rule="evenodd" clip-rule="evenodd" d="M2 6H14L12 12L14 18H2L4 12L2 6Z" fill="#121417"/>
</g>
<path d="M43.403 18.77L39.704 15.089L41.063 13.73L44.744 17.411L43.403 18.77ZM38.741 18.77C37.445 18.77 36.335 18.488 35.411 17.924C34.487 17.354 33.776 16.562 33.278 15.548C32.786 14.534 32.54 13.358 32.54 12.02C32.54 10.682 32.786 9.506 33.278 8.492C33.776 7.478 34.487 6.689 35.411 6.125C36.335 5.555 37.445 5.27 38.741 5.27C40.037 5.27 41.147 5.555 42.071 6.125C43.001 6.689 43.712 7.478 44.204 8.492C44.702 9.506 44.951 10.682 44.951 12.02C44.951 13.358 44.702 14.534 44.204 15.548C43.712 16.562 43.001 17.354 42.071 17.924C41.147 18.488 40.037 18.77 38.741 18.77ZM38.741 16.727C39.611 16.733 40.334 16.541 40.91 16.151C41.492 15.761 41.927 15.212 42.215 14.504C42.509 13.796 42.656 12.968 42.656 12.02C42.656 11.072 42.509 10.25 42.215 9.554C41.927 8.852 41.492 8.306 40.91 7.916C40.334 7.526 39.611 7.325 38.741 7.313C37.871 7.307 37.148 7.499 36.572 7.889C35.996 8.279 35.561 8.828 35.267 9.536C34.979 10.244 34.835 11.072 34.835 12.02C34.835 12.968 34.979 13.793 35.267 14.495C35.555 15.191 35.987 15.734 36.563 16.124C37.145 16.514 37.871 16.715 38.741 16.727ZM50.3874 18.779C49.6674 18.779 49.0734 18.659 48.6054 18.419C48.1374 18.179 47.7654 17.873 47.4894 17.501C47.2134 17.129 47.0094 16.733 46.8774 16.313C46.7454 15.893 46.6584 15.497 46.6164 15.125C46.5804 14.747 46.5624 14.441 46.5624 14.207V8.78H48.7584V13.46C48.7584 13.76 48.7794 14.099 48.8214 14.477C48.8634 14.849 48.9594 15.209 49.1094 15.557C49.2654 15.899 49.4934 16.181 49.7934 16.403C50.0994 16.625 50.5104 16.736 51.0264 16.736C51.3024 16.736 51.5754 16.691 51.8454 16.601C52.1154 16.511 52.3584 16.358 52.5744 16.142C52.7964 15.92 52.9734 15.617 53.1054 15.233C53.2374 14.849 53.3034 14.363 53.3034 13.775L54.5904 14.324C54.5904 15.152 54.4284 15.902 54.1044 16.574C53.7864 17.246 53.3154 17.783 52.6914 18.185C52.0674 18.581 51.2994 18.779 50.3874 18.779ZM53.5644 18.5V15.485H53.3034V8.78H55.4814V18.5H53.5644ZM58.19 7.304V5.315H60.359V7.304H58.19ZM58.19 18.5V8.78H60.359V18.5H58.19ZM62.1549 18.5V18.203L67.3029 10.679H62.6769V8.78H70.6779V9.086L65.5479 16.601H70.4619V18.5H62.1549ZM72.6526 18.5V5.54H74.6056L79.0876 14.72L83.5696 5.54H85.5226V18.5H83.4976V10.193L79.5196 18.5H78.6556L74.6866 10.193V18.5H72.6526ZM90.769 18.77C90.067 18.77 89.473 18.638 88.987 18.374C88.501 18.104 88.132 17.747 87.88 17.303C87.634 16.859 87.511 16.37 87.511 15.836C87.511 15.368 87.589 14.948 87.745 14.576C87.901 14.198 88.141 13.874 88.465 13.604C88.789 13.328 89.209 13.103 89.725 12.929C90.115 12.803 90.571 12.689 91.093 12.587C91.621 12.485 92.191 12.392 92.803 12.308C93.421 12.218 94.066 12.122 94.738 12.02L93.964 12.461C93.97 11.789 93.82 11.294 93.514 10.976C93.208 10.658 92.692 10.499 91.966 10.499C91.528 10.499 91.105 10.601 90.697 10.805C90.289 11.009 90.004 11.36 89.842 11.858L87.862 11.237C88.102 10.415 88.558 9.755 89.23 9.257C89.908 8.759 90.82 8.51 91.966 8.51C92.83 8.51 93.589 8.651 94.243 8.933C94.903 9.215 95.392 9.677 95.71 10.319C95.884 10.661 95.989 11.012 96.025 11.372C96.061 11.726 96.079 12.113 96.079 12.533V18.5H94.18V16.394L94.495 16.736C94.057 17.438 93.544 17.954 92.956 18.284C92.374 18.608 91.645 18.77 90.769 18.77ZM91.201 17.042C91.693 17.042 92.113 16.955 92.461 16.781C92.809 16.607 93.085 16.394 93.289 16.142C93.499 15.89 93.64 15.653 93.712 15.431C93.826 15.155 93.889 14.84 93.901 14.486C93.919 14.126 93.928 13.835 93.928 13.613L94.594 13.811C93.94 13.913 93.379 14.003 92.911 14.081C92.443 14.159 92.041 14.234 91.705 14.306C91.369 14.372 91.072 14.447 90.814 14.531C90.562 14.621 90.349 14.726 90.175 14.846C90.001 14.966 89.866 15.104 89.77 15.26C89.68 15.416 89.635 15.599 89.635 15.809C89.635 16.049 89.695 16.262 89.815 16.448C89.935 16.628 90.109 16.772 90.337 16.88C90.571 16.988 90.859 17.042 91.201 17.042ZM102.175 18.77C100.975 18.77 100 18.5 99.2501 17.96C98.5001 17.42 98.0441 16.661 97.8821 15.683L100.096 15.341C100.21 15.821 100.462 16.199 100.852 16.475C101.242 16.751 101.734 16.889 102.328 16.889C102.85 16.889 103.252 16.787 103.534 16.583C103.822 16.373 103.966 16.088 103.966 15.728C103.966 15.506 103.912 15.329 103.804 15.197C103.702 15.059 103.474 14.927 103.12 14.801C102.766 14.675 102.223 14.516 101.491 14.324C100.675 14.108 100.027 13.877 99.5471 13.631C99.0671 13.379 98.7221 13.082 98.5121 12.74C98.3021 12.398 98.1971 11.984 98.1971 11.498C98.1971 10.892 98.3561 10.364 98.6741 9.914C98.9921 9.464 99.4361 9.119 100.006 8.879C100.576 8.633 101.248 8.51 102.022 8.51C102.778 8.51 103.447 8.627 104.029 8.861C104.617 9.095 105.091 9.428 105.451 9.86C105.811 10.292 106.033 10.799 106.117 11.381L103.903 11.777C103.849 11.363 103.66 11.036 103.336 10.796C103.018 10.556 102.592 10.421 102.058 10.391C101.548 10.361 101.137 10.439 100.825 10.625C100.513 10.805 100.357 11.06 100.357 11.39C100.357 11.576 100.42 11.735 100.546 11.867C100.672 11.999 100.924 12.131 101.302 12.263C101.686 12.395 102.256 12.557 103.012 12.749C103.786 12.947 104.404 13.175 104.866 13.433C105.334 13.685 105.67 13.988 105.874 14.342C106.084 14.696 106.189 15.125 106.189 15.629C106.189 16.607 105.832 17.375 105.118 17.933C104.41 18.491 103.429 18.77 102.175 18.77ZM113.857 18.5C113.215 18.62 112.585 18.671 111.967 18.653C111.355 18.641 110.806 18.53 110.32 18.32C109.834 18.104 109.465 17.765 109.213 17.303C108.991 16.883 108.874 16.454 108.862 16.016C108.85 15.578 108.844 15.083 108.844 14.531V6.08H111.004V14.405C111.004 14.795 111.007 15.137 111.013 15.431C111.025 15.725 111.088 15.965 111.202 16.151C111.418 16.511 111.763 16.712 112.237 16.754C112.711 16.796 113.251 16.772 113.857 16.682V18.5ZM107.08 10.481V8.78H113.857V10.481H107.08ZM119.874 18.77C118.89 18.77 118.026 18.557 117.282 18.131C116.538 17.705 115.956 17.114 115.536 16.358C115.122 15.602 114.915 14.732 114.915 13.748C114.915 12.686 115.119 11.765 115.527 10.985C115.935 10.199 116.502 9.59 117.228 9.158C117.954 8.726 118.794 8.51 119.748 8.51C120.756 8.51 121.611 8.747 122.313 9.221C123.021 9.689 123.546 10.352 123.888 11.21C124.23 12.068 124.359 13.079 124.275 14.243H122.124V13.451C122.118 12.395 121.932 11.624 121.566 11.138C121.2 10.652 120.624 10.409 119.838 10.409C118.95 10.409 118.29 10.685 117.858 11.237C117.426 11.783 117.21 12.584 117.21 13.64C117.21 14.624 117.426 15.386 117.858 15.926C118.29 16.466 118.92 16.736 119.748 16.736C120.282 16.736 120.741 16.619 121.125 16.385C121.515 16.145 121.815 15.8 122.025 15.35L124.167 15.998C123.795 16.874 123.219 17.555 122.439 18.041C121.665 18.527 120.81 18.77 119.874 18.77ZM116.526 14.243V12.605H123.213V14.243H116.526ZM126.283 18.5V8.78H128.2V11.147L127.966 10.841C128.086 10.517 128.245 10.223 128.443 9.959C128.647 9.689 128.89 9.467 129.172 9.293C129.412 9.131 129.676 9.005 129.964 8.915C130.258 8.819 130.558 8.762 130.864 8.744C131.17 8.72 131.467 8.732 131.755 8.78V10.805C131.467 10.721 131.134 10.694 130.756 10.724C130.384 10.754 130.048 10.859 129.748 11.039C129.448 11.201 129.202 11.408 129.01 11.66C128.824 11.912 128.686 12.2 128.596 12.524C128.506 12.842 128.461 13.187 128.461 13.559V18.5H126.283Z" fill="#121417"/>
<defs>
<clipPath id="clip0_2_314">
<rect width="16" height="16" fill="white" transform="translate(0 4)"/>
</clipPath>
</defs>
</svg>
