<svg width="44" height="54" viewBox="0 0 44 54" fill="none" xmlns="http://www.w3.org/2000/svg">
<path d="M18.5396 12.055H33.7271C34.1629 12.055 34.5769 12.2447 34.8618 12.5745L38.8745 17.221L42.3442 21.7747C42.5432 22.0359 42.6518 22.3556 42.6519 22.6839V51.3714C42.6519 52.1997 41.9801 52.8712 41.1519 52.8714H11.1147C10.2863 52.8714 9.61475 52.1998 9.61475 51.3714V22.6839L9.61963 22.5618C9.64294 22.277 9.74716 22.0034 9.92139 21.7747L13.3911 17.221L17.4038 12.5745C17.6887 12.2446 18.1036 12.055 18.5396 12.055Z" stroke="#282828"/>
<path d="M26.133 16.9036C26.133 16.1501 26.133 12.1121 26.133 8.16727C26.133 4.78526 23.7006 1.89341 20.3686 1.31394L19.429 1.15053C16.8035 0.693917 14.2083 2.10112 13.1585 4.55057V4.55057C11.3886 8.68048 5.77813 9.27574 3.18098 5.60916L0.848633 2.31644" stroke="#282828" stroke-linecap="round"/>
</svg>
