<svg width="41" height="41" viewBox="0 0 41 41" fill="none" xmlns="http://www.w3.org/2000/svg">
<g clip-path="url(#clip0_245_1690)">
<path d="M13.9332 40.5001C17.6132 40.5001 20.5998 37.5134 20.5998 33.8334V27.1667H13.9332C10.2532 27.1667 7.26651 30.1534 7.26651 33.8334C7.26651 37.5134 10.2532 40.5001 13.9332 40.5001Z" fill="white"/>
<path d="M7.26651 20.4999C7.26651 16.8199 10.2532 13.8333 13.9332 13.8333H20.5998V27.1666H13.9332C10.2532 27.1666 7.26651 24.1799 7.26651 20.4999Z" fill="white"/>
<path d="M7.26651 7.16667C7.26651 3.48667 10.2532 0.5 13.9332 0.5H20.5998V13.8333H13.9332C10.2532 13.8333 7.26651 10.8467 7.26651 7.16667Z" fill="white"/>
<path d="M20.5999 0.5H27.2665C30.9465 0.5 33.9332 3.48667 33.9332 7.16667C33.9332 10.8467 30.9465 13.8333 27.2665 13.8333H20.5999V0.5Z" fill="white"/>
<path d="M33.9332 20.4999C33.9332 24.1799 30.9465 27.1666 27.2665 27.1666C23.5865 27.1666 20.5999 24.1799 20.5999 20.4999C20.5999 16.8199 23.5865 13.8333 27.2665 13.8333C30.9465 13.8333 33.9332 16.8199 33.9332 20.4999Z" fill="white"/>
</g>
<defs>
<clipPath id="clip0_245_1690">
<rect width="40" height="40" fill="white" transform="translate(0.600006 0.5)"/>
</clipPath>
</defs>
</svg>
