<svg width="38" height="39" viewBox="0 0 38 39" fill="none" xmlns="http://www.w3.org/2000/svg">
<path d="M37.8832 11.6673C37.7424 5.00045 33.5008 0.756452 26.8324 0.616852C25.2312 0.462452 12.7696 0.459652 11.1672 0.616852C4.50039 0.757652 0.256389 4.99925 0.116789 11.6677C-0.0376105 13.2665 -0.0408105 25.7321 0.116789 27.3329C0.241189 33.9781 4.52119 38.2593 11.1672 38.3833C12.7684 38.5393 25.23 38.5393 26.8324 38.3833C28.8544 38.2909 30.2356 37.9697 31.444 37.5001C35.6788 35.8085 37.748 32.0457 37.8832 27.3325C38.0376 25.7313 38.0404 13.2697 37.8832 11.6673ZM26.6764 34.9637C25.1008 35.1141 12.9 35.1165 11.3232 34.9637C9.47119 34.8793 8.46519 34.5697 7.79559 34.3097C2.01599 31.6289 3.80799 26.2077 3.53559 18.7665C3.54159 17.0381 3.53199 13.5521 3.53599 11.8237C3.76679 6.67085 6.19359 4.28525 11.3232 4.03645C12.9008 3.88605 25.0984 3.88365 26.6764 4.03645C31.8308 4.26725 34.214 6.69405 34.4636 11.8233C34.5656 13.0549 34.6396 19.7781 34.4636 23.1805C34.6536 29.5709 34.3624 34.5889 26.6764 34.9637Z" fill="white"/>
</svg>
