<svg width="41" height="41" viewBox="0 0 41 41" fill="none" xmlns="http://www.w3.org/2000/svg">
<path d="M36.3916 1.50511C30.5472 1.48871 8.9908 1.51631 4.0084 1.50511C2.458 1.50511 1.2 2.72471 1.2 4.22671V36.7791C1.2 38.2815 2.458 39.4999 4.0084 39.4999H36.3916C37.9428 39.4999 39.2 38.2815 39.2 36.7787V4.22671C39.2 2.72471 37.9428 1.50511 36.3916 1.50511Z" fill="white"/>
<path d="M21.5812 33.302C21.5812 33.302 21.5812 23.7508 21.5812 23.7504C21.5256 21.9952 22.5748 20.3572 24.686 20.2836C26.7432 20.2836 27.5664 21.852 27.5664 24.1516V33.3016H33.252V23.494C33.252 18.24 30.4472 15.7952 26.706 15.7952C23.6388 15.7952 22.2916 17.5092 21.5432 18.6768L21.5812 16.1968H15.8956C15.9696 17.8016 15.8952 33.302 15.8952 33.302H21.5812ZM12.748 25.8844V16.1964H7.06159V33.3016H12.7484C12.7472 31.5056 12.7504 27.6552 12.748 25.8844ZM9.90599 13.8616C11.8884 13.8616 13.1228 12.548 13.1228 10.9068C13.1064 6.94797 6.72119 6.99197 6.72639 10.9064C6.72199 12.5604 7.99039 13.882 9.90599 13.8616Z" fill="black"/>
</svg>
