<svg width="35" height="35" viewBox="0 0 35 35" fill="none" xmlns="http://www.w3.org/2000/svg">
<path d="M17.3905 0.833252C14.0942 0.833252 10.8718 1.81073 8.13102 3.64209C5.3902 5.47345 3.25399 8.07643 1.99253 11.1219C0.731074 14.1673 0.401018 17.5184 1.0441 20.7514C1.68719 23.9844 3.27454 26.9542 5.60541 29.285C7.93629 31.6159 10.906 33.2033 14.139 33.8463C17.372 34.4894 20.7231 34.1594 23.7686 32.8979C26.814 31.6365 29.417 29.5002 31.2484 26.7594C33.0797 24.0186 34.0572 20.7963 34.0572 17.4999C34.0574 15.3112 33.6264 13.1438 32.7889 11.1216C31.9514 9.09947 30.7237 7.26208 29.176 5.7144C27.6284 4.16672 25.791 2.93907 23.7688 2.10156C21.7466 1.26404 19.5793 0.83307 17.3905 0.833252ZM22.6897 26.0874C22.6273 26.2429 22.5324 26.3833 22.4113 26.4992C22.2902 26.6151 22.1458 26.7037 21.9876 26.7592C21.8295 26.8147 21.6613 26.8357 21.4944 26.8209C21.3274 26.806 21.1656 26.7557 21.0197 26.6732L16.4953 23.1576L13.5914 25.8366C13.524 25.8864 13.4452 25.9184 13.3622 25.9297C13.2792 25.9411 13.1947 25.9314 13.1164 25.9015L13.6731 20.9207L13.6909 20.9349L13.7023 20.8365C13.7023 20.8365 21.8439 13.424 22.1756 13.1082C22.5114 12.7932 22.4006 12.7249 22.4006 12.7249C22.4197 12.3406 21.7981 12.7249 21.7981 12.7249L11.0105 19.6649L6.51804 18.1349C6.51804 18.1349 5.82804 17.8874 5.76304 17.3433C5.69471 16.8033 6.54053 16.5099 6.54053 16.5099L24.4022 9.41407C24.4022 9.41407 25.8705 8.75987 25.8705 9.84325L22.6897 26.0874Z" fill="white"/>
</svg>
