<svg width="41" height="41" viewBox="0 0 41 41" fill="none" xmlns="http://www.w3.org/2000/svg">
<path d="M39.3684 8.94888C38.0016 9.55608 36.5332 9.96448 34.992 10.1489C36.566 9.20608 37.7728 7.71368 38.3412 5.93408C36.87 6.80688 35.2392 7.44088 33.502 7.78368C32.1124 6.30248 30.1328 5.37688 27.9416 5.37688C23.0984 5.31208 19.3748 10.0437 20.5208 14.7309C14.1892 14.4137 8.57599 11.3801 4.81679 6.76928C2.76519 10.1149 3.92999 14.8993 7.17519 16.9417C5.92679 16.9017 4.75119 16.5589 3.72439 15.9889C3.67679 19.7109 6.31719 22.8533 9.83599 23.5545C8.75479 23.8561 7.50919 23.9033 6.39519 23.6857C7.36519 26.7121 10.1788 28.9161 13.5124 28.9773C10.4984 31.3857 6.27879 32.6413 2.23199 32.1325C18.5048 42.1473 36.494 29.0265 35.5652 12.8921C37.0544 11.8169 38.3472 10.4757 39.3684 8.94888Z" fill="white"/>
</svg>
